<?xml version="1.0" encoding="UTF-8" standalone="no"?>
<!-- Created with Inkscape (http://www.inkscape.org/) -->

<svg
   width="737.71301mm"
   height="100mm"
   viewBox="0 0 737.713 100"
   version="1.1"
   id="svg1"
   inkscape:version="1.4.4 (dcaf3e7d9e, 2026-05-05)"
   sodipodi:docname="Logo 5.svg"
   xmlns:inkscape="http://www.inkscape.org/namespaces/inkscape"
   xmlns:sodipodi="http://sodipodi.sourceforge.net/DTD/sodipodi-0.dtd"
   xmlns:xlink="http://www.w3.org/1999/xlink"
   xmlns="http://www.w3.org/2000/svg"
   xmlns:svg="http://www.w3.org/2000/svg">
  <sodipodi:namedview
     id="namedview1"
     pagecolor="#ffffff"
     bordercolor="#000000"
     borderopacity="0.25"
     inkscape:showpageshadow="2"
     inkscape:pageopacity="0.0"
     inkscape:pagecheckerboard="0"
     inkscape:deskcolor="#d1d1d1"
     inkscape:document-units="mm"
     showguides="true"
     inkscape:zoom="0.36094885"
     inkscape:cx="972.43695"
     inkscape:cy="242.41662"
     inkscape:window-width="1366"
     inkscape:window-height="732"
     inkscape:window-x="0"
     inkscape:window-y="0"
     inkscape:window-maximized="1"
     inkscape:current-layer="g26">
    <sodipodi:guide
       position="297,0"
       orientation="0,-1"
       id="guide1"
       inkscape:locked="false" />
    <sodipodi:guide
       position="19.158115,29.88699"
       orientation="0,-1"
       id="guide2"
       inkscape:locked="false" />
    <sodipodi:guide
       position="297,99.999997"
       orientation="0,-1"
       id="guide3"
       inkscape:locked="false" />
    <sodipodi:guide
       position="127.28542,32.676719"
       orientation="1,0"
       id="guide4"
       inkscape:locked="false" />
    <sodipodi:guide
       position="267.95099,100"
       orientation="1,0"
       id="guide5"
       inkscape:locked="false" />
    <sodipodi:guide
       position="265.42114,21.005843"
       orientation="0,-1"
       id="guide6"
       inkscape:locked="false" />
    <sodipodi:guide
       position="301.75526,91.11885"
       orientation="0,-1"
       id="guide7"
       inkscape:locked="false" />
    <sodipodi:guide
       position="300.72299,9.536743e-07"
       orientation="0,-1"
       id="guide8"
       inkscape:locked="false" />
    <sodipodi:guide
       position="289.92901,8.8811493"
       orientation="0,-1"
       id="guide9"
       inkscape:locked="false" />
  </sodipodi:namedview>
  <defs
     id="defs1">
    <radialGradient
       inkscape:collect="always"
       xlink:href="#linearGradient113"
       id="radialGradient1"
       gradientUnits="userSpaceOnUse"
       gradientTransform="matrix(1.9342367,0.85873382,-0.69622501,1.5681849,-212.2896,-335.19301)"
       cx="152.36804"
       cy="179.43855"
       fx="152.36804"
       fy="179.43855"
       r="91.358559" />
    <linearGradient
       id="linearGradient113"
       inkscape:collect="always">
      <stop
         style="stop-color:#4474f9;stop-opacity:1"
         offset="0"
         id="stop108" />
      <stop
         style="stop-color:#00ffff;stop-opacity:1"
         offset="0.2413515"
         id="stop109" />
      <stop
         style="stop-color:#6d50fc;stop-opacity:1;"
         offset="0.56848603"
         id="stop110" />
      <stop
         style="stop-color:#6353fc;stop-opacity:1"
         offset="0.73616302"
         id="stop111" />
      <stop
         style="stop-color:#914afc;stop-opacity:1;"
         offset="0.94796312"
         id="stop112" />
      <stop
         style="stop-color:#a048fc;stop-opacity:1"
         offset="1"
         id="stop113" />
    </linearGradient>
  </defs>
  <g
     inkscape:label="Capa 1"
     inkscape:groupmode="layer"
     id="layer1">
    <g
       id="g26">
      <text
         xml:space="preserve"
         style="font-style:normal;font-variant:normal;font-weight:normal;font-stretch:normal;font-size:143.782px;font-family:'Anek Devanagari';-inkscape-font-specification:'Anek Devanagari, Normal';font-variant-ligatures:normal;font-variant-caps:normal;font-variant-numeric:normal;font-variant-east-asian:normal;letter-spacing:-1.98368px;writing-mode:lr-tb;direction:ltr;fill:#6353FC;fill-opacity:1;stroke:none;stroke-width:15.441;stroke-linecap:round;paint-order:markers stroke fill"
         x="229.87213"
         y="98.202896"
         id="text1"><tspan
           sodipodi:role="line"
           id="tspan1"
           style="font-style:normal;font-variant:normal;font-weight:normal;font-stretch:normal;font-size:143.782px;font-family:'Anek Devanagari';-inkscape-font-specification:'Anek Devanagari, Normal';font-variant-ligatures:normal;font-variant-caps:normal;font-variant-numeric:normal;font-variant-east-asian:normal;fill:#6353FC;fill-opacity:1;stroke:none;stroke-width:15.441"
           x="229.87213"
           y="98.202896">Currículo</tspan></text>
      <path
         id="path1"
         style="font-variation-settings:'wght' 700;fill:#6353FC;stroke-width:11.3895;stroke-linecap:round;paint-order:markers stroke fill"
         d="M 0.14563844,12.361444 V 99.999847 H 56.17179 A 14.657872,14.657872 0 0 0 70.829656,85.341981 V 74.418615 A 3.7345782,3.7345782 0 0 0 67.095083,70.684018 H 35.487659 L 17.826879,82.457935 A 2.8232373,2.8232373 0 0 1 13.735655,78.846269 L 17.60817,71.101214 40.022995,3.8557596 A 2.9294161,2.9294161 0 0 0 37.243906,0 H 8.9810121 A 10.744051,10.744051 0 0 0 0.14563844,12.361444 Z m 79.51965456,0 V 99.999847 H 135.69145 A 14.657872,14.657872 0 0 0 150.34933,85.341981 V 74.418615 a 3.7345782,3.7345782 0 0 0 -3.73459,-3.734597 H 115.00731 L 97.346557,82.457935 a 2.8232377,2.8232377 0 0 1 -4.091248,-3.611666 l 4.080994,-8.161988 5.890507,-17.67125 h 11.7805 11.58402 a 8.4452077,8.4452077 0 0 0 8.01183,-5.77464 l 3.03408,-9.102366 a 2.1227543,2.1227543 0 0 0 -2.01383,-2.794004 h -26.50635 l 4.40977,-13.229493 a 6.4955895,6.4955895 0 0 1 6.16225,-4.441517 h 18.683 a 8.4452073,8.4452073 0 0 0 8.01186,-5.774642 l 2.68015,-8.0406094 A 2.9294163,2.9294163 0 0 0 146.285,0 H 88.500667 a 10.744053,10.744053 0 0 0 -8.835374,12.361444 z m 79.519647,0 v 87.638403 h 56.02617 A 14.657872,14.657872 0 0 0 229.869,85.341981 V 74.418615 a 3.7345782,3.7345782 0 0 0 -3.7346,-3.734597 h -31.60743 l -17.66076,11.773917 a 2.8232366,2.8232366 0 0 1 -4.09125,-3.611666 l 4.081,-8.161988 5.89052,-17.67125 h 11.78049 11.58401 a 8.4452077,8.4452077 0 0 0 8.01187,-5.77464 l 3.03406,-9.102366 a 2.1227543,2.1227543 0 0 0 -2.01383,-2.794004 h -26.50637 l 4.40977,-13.229493 a 6.4955881,6.4955881 0 0 1 6.16224,-4.441517 h 18.68303 a 8.4452073,8.4452073 0 0 0 8.01184,-5.774642 l 2.68016,-8.0406094 A 2.9294163,2.9294163 0 0 0 225.80467,0 h -57.78436 a 10.744053,10.744053 0 0 0 -8.83537,12.361444 z" />
    </g>
  </g>
</svg>
